<?xml version="1.0" encoding="UTF-8"?> <svg xmlns="http://www.w3.org/2000/svg" width="210" height="67" viewBox="0 0 210 67" fill="none"> <rect width="210" height="67" fill="#EBEAF3"></rect> <path d="M46.2351 45.3126C42.719 45.2923 39.8105 38.1148 39.8105 34.4594C39.8105 28.4884 44.2898 27.1812 46.0161 27.1812C46.7941 27.1812 47.6248 27.4867 48.3575 27.757C48.8698 27.9456 49.3997 28.1403 49.6945 28.1403C49.8709 28.1403 50.2866 27.9747 50.6536 27.8294C51.4363 27.5178 52.4103 27.1305 53.5445 27.1305C53.5465 27.1305 53.5492 27.1305 53.5512 27.1305C54.3981 27.1305 56.9659 27.3164 58.5097 29.6347L58.8713 30.1782L58.3509 30.5709C57.6074 31.1319 56.2508 32.1552 56.2508 34.1823C56.2508 36.5832 57.7872 37.5065 58.5253 37.9505C58.8511 38.1466 59.1883 38.3487 59.1883 38.7907C59.1883 39.0793 56.8848 45.2768 53.5397 45.2768C52.7212 45.2768 52.1426 45.0308 51.6323 44.8138C51.1159 44.5941 50.6704 44.4049 49.9344 44.4049C49.5612 44.4049 49.0894 44.5813 48.5899 44.7685C47.9074 45.0233 47.1348 45.3126 46.2581 45.3126H46.2351Z" fill="#1C1C1C"></path> <path d="M53.8993 21.6875C53.9864 24.8287 51.74 27.0079 49.4962 26.8712C49.1264 24.3645 51.7397 21.6875 53.8993 21.6875Z" fill="#1C1C1C"></path> <path d="M70.9 40.5L77.2 26.5H79.76L86.08 40.5H83.36L77.94 27.88H78.98L73.58 40.5H70.9ZM73.8 37.26L74.5 35.22H82.06L82.76 37.26H73.8ZM93.5405 40.64C92.6738 40.64 91.8805 40.44 91.1605 40.04C90.4538 39.64 89.8871 39.04 89.4605 38.24C89.0471 37.4267 88.8405 36.4 88.8405 35.16C88.8405 33.9067 89.0405 32.88 89.4405 32.08C89.8538 31.28 90.4138 30.6867 91.1205 30.3C91.8271 29.9 92.6338 29.7 93.5405 29.7C94.5938 29.7 95.5205 29.9267 96.3205 30.38C97.1338 30.8333 97.7738 31.4667 98.2405 32.28C98.7205 33.0933 98.9605 34.0533 98.9605 35.16C98.9605 36.2667 98.7205 37.2333 98.2405 38.06C97.7738 38.8733 97.1338 39.5067 96.3205 39.96C95.5205 40.4133 94.5938 40.64 93.5405 40.64ZM87.6205 44.38V29.82H90.0005V32.34L89.9205 35.18L90.1205 38.02V44.38H87.6205ZM93.2605 38.5C93.8605 38.5 94.3938 38.3667 94.8605 38.1C95.3405 37.8333 95.7205 37.4467 96.0005 36.94C96.2805 36.4333 96.4205 35.84 96.4205 35.16C96.4205 34.4667 96.2805 33.8733 96.0005 33.38C95.7205 32.8733 95.3405 32.4867 94.8605 32.22C94.3938 31.9533 93.8605 31.82 93.2605 31.82C92.6605 31.82 92.1205 31.9533 91.6405 32.22C91.1605 32.4867 90.7805 32.8733 90.5005 33.38C90.2205 33.8733 90.0805 34.4667 90.0805 35.16C90.0805 35.84 90.2205 36.4333 90.5005 36.94C90.7805 37.4467 91.1605 37.8333 91.6405 38.1C92.1205 38.3667 92.6605 38.5 93.2605 38.5ZM107.251 40.64C106.385 40.64 105.591 40.44 104.871 40.04C104.165 39.64 103.598 39.04 103.171 38.24C102.758 37.4267 102.551 36.4 102.551 35.16C102.551 33.9067 102.751 32.88 103.151 32.08C103.565 31.28 104.125 30.6867 104.831 30.3C105.538 29.9 106.345 29.7 107.251 29.7C108.305 29.7 109.231 29.9267 110.031 30.38C110.845 30.8333 111.485 31.4667 111.951 32.28C112.431 33.0933 112.671 34.0533 112.671 35.16C112.671 36.2667 112.431 37.2333 111.951 38.06C111.485 38.8733 110.845 39.5067 110.031 39.96C109.231 40.4133 108.305 40.64 107.251 40.64ZM101.331 44.38V29.82H103.711V32.34L103.631 35.18L103.831 38.02V44.38H101.331ZM106.971 38.5C107.571 38.5 108.105 38.3667 108.571 38.1C109.051 37.8333 109.431 37.4467 109.711 36.94C109.991 36.4333 110.131 35.84 110.131 35.16C110.131 34.4667 109.991 33.8733 109.711 33.38C109.431 32.8733 109.051 32.4867 108.571 32.22C108.105 31.9533 107.571 31.82 106.971 31.82C106.371 31.82 105.831 31.9533 105.351 32.22C104.871 32.4867 104.491 32.8733 104.211 33.38C103.931 33.8733 103.791 34.4667 103.791 35.16C103.791 35.84 103.931 36.4333 104.211 36.94C104.491 37.4467 104.871 37.8333 105.351 38.1C105.831 38.3667 106.371 38.5 106.971 38.5ZM125.15 40.7C124.056 40.7 123.01 40.5467 122.01 40.24C121.01 39.92 120.216 39.5133 119.63 39.02L120.53 37C121.09 37.44 121.783 37.8067 122.61 38.1C123.436 38.3933 124.283 38.54 125.15 38.54C125.883 38.54 126.476 38.46 126.93 38.3C127.383 38.14 127.716 37.9267 127.93 37.66C128.143 37.38 128.25 37.0667 128.25 36.72C128.25 36.2933 128.096 35.9533 127.79 35.7C127.483 35.4333 127.083 35.2267 126.59 35.08C126.11 34.92 125.57 34.7733 124.97 34.64C124.383 34.5067 123.79 34.3533 123.19 34.18C122.603 33.9933 122.063 33.76 121.57 33.48C121.09 33.1867 120.696 32.8 120.39 32.32C120.083 31.84 119.93 31.2267 119.93 30.48C119.93 29.72 120.13 29.0267 120.53 28.4C120.943 27.76 121.563 27.2533 122.39 26.88C123.23 26.4933 124.29 26.3 125.57 26.3C126.41 26.3 127.243 26.4067 128.07 26.62C128.896 26.8333 129.616 27.14 130.23 27.54L129.41 29.56C128.783 29.1867 128.136 28.9133 127.47 28.74C126.803 28.5533 126.163 28.46 125.55 28.46C124.83 28.46 124.243 28.5467 123.79 28.72C123.35 28.8933 123.023 29.12 122.81 29.4C122.61 29.68 122.51 30 122.51 30.36C122.51 30.7867 122.656 31.1333 122.95 31.4C123.256 31.6533 123.65 31.8533 124.13 32C124.623 32.1467 125.17 32.2933 125.77 32.44C126.37 32.5733 126.963 32.7267 127.55 32.9C128.15 33.0733 128.69 33.3 129.17 33.58C129.663 33.86 130.056 34.24 130.35 34.72C130.656 35.2 130.81 35.8067 130.81 36.54C130.81 37.2867 130.603 37.98 130.19 38.62C129.79 39.2467 129.17 39.7533 128.33 40.14C127.49 40.5133 126.43 40.7 125.15 40.7ZM137.168 40.64C135.994 40.64 135.088 40.34 134.448 39.74C133.808 39.1267 133.488 38.2267 133.488 37.04V27.46H135.988V36.98C135.988 37.4867 136.114 37.88 136.368 38.16C136.634 38.44 137.001 38.58 137.468 38.58C138.028 38.58 138.494 38.4333 138.868 38.14L139.568 39.92C139.274 40.16 138.914 40.34 138.488 40.46C138.061 40.58 137.621 40.64 137.168 40.64ZM131.728 31.9V29.9H138.848V31.9H131.728ZM146.073 40.64C144.979 40.64 144.006 40.4067 143.153 39.94C142.299 39.46 141.626 38.8067 141.133 37.98C140.639 37.1533 140.393 36.2133 140.393 35.16C140.393 34.0933 140.639 33.1533 141.133 32.34C141.626 31.5133 142.299 30.8667 143.153 30.4C144.006 29.9333 144.979 29.7 146.073 29.7C147.179 29.7 148.159 29.9333 149.013 30.4C149.879 30.8667 150.553 31.5067 151.033 32.32C151.526 33.1333 151.773 34.08 151.773 35.16C151.773 36.2133 151.526 37.1533 151.033 37.98C150.553 38.8067 149.879 39.46 149.013 39.94C148.159 40.4067 147.179 40.64 146.073 40.64ZM146.073 38.5C146.686 38.5 147.233 38.3667 147.713 38.1C148.193 37.8333 148.566 37.4467 148.833 36.94C149.113 36.4333 149.253 35.84 149.253 35.16C149.253 34.4667 149.113 33.8733 148.833 33.38C148.566 32.8733 148.193 32.4867 147.713 32.22C147.233 31.9533 146.693 31.82 146.093 31.82C145.479 31.82 144.933 31.9533 144.453 32.22C143.986 32.4867 143.613 32.8733 143.333 33.38C143.053 33.8733 142.913 34.4667 142.913 35.16C142.913 35.84 143.053 36.4333 143.333 36.94C143.613 37.4467 143.986 37.8333 144.453 38.1C144.933 38.3667 145.473 38.5 146.073 38.5ZM154.163 40.5V29.82H156.543V32.76L156.263 31.9C156.583 31.18 157.083 30.6333 157.763 30.26C158.457 29.8867 159.317 29.7 160.343 29.7V32.08C160.237 32.0533 160.137 32.04 160.043 32.04C159.95 32.0267 159.857 32.02 159.763 32.02C158.817 32.02 158.063 32.3 157.503 32.86C156.943 33.4067 156.663 34.2267 156.663 35.32V40.5H154.163ZM167.387 40.64C166.2 40.64 165.16 40.4067 164.267 39.94C163.387 39.46 162.7 38.8067 162.207 37.98C161.727 37.1533 161.487 36.2133 161.487 35.16C161.487 34.0933 161.72 33.1533 162.187 32.34C162.667 31.5133 163.32 30.8667 164.147 30.4C164.987 29.9333 165.94 29.7 167.007 29.7C168.047 29.7 168.973 29.9267 169.787 30.38C170.6 30.8333 171.24 31.4733 171.707 32.3C172.173 33.1267 172.407 34.1 172.407 35.22C172.407 35.3267 172.4 35.4467 172.387 35.58C172.387 35.7133 172.38 35.84 172.367 35.96H163.467V34.3H171.047L170.067 34.82C170.08 34.2067 169.953 33.6667 169.687 33.2C169.42 32.7333 169.053 32.3667 168.587 32.1C168.133 31.8333 167.607 31.7 167.007 31.7C166.393 31.7 165.853 31.8333 165.387 32.1C164.933 32.3667 164.573 32.74 164.307 33.22C164.053 33.6867 163.927 34.24 163.927 34.88V35.28C163.927 35.92 164.073 36.4867 164.367 36.98C164.66 37.4733 165.073 37.8533 165.607 38.12C166.14 38.3867 166.753 38.52 167.447 38.52C168.047 38.52 168.587 38.4267 169.067 38.24C169.547 38.0533 169.973 37.76 170.347 37.36L171.687 38.9C171.207 39.46 170.6 39.8933 169.867 40.2C169.147 40.4933 168.32 40.64 167.387 40.64Z" fill="#1C1C1C"></path> </svg> 