<?xml version="1.0" encoding="UTF-8"?> <svg xmlns="http://www.w3.org/2000/svg" width="80" height="80" viewBox="0 0 101 41" fill="none"> <path d="M46.3972 0.970703H51.722L51.7821 0.996469L51.8079 1.0583V10.332L51.8302 10.3973L51.8938 10.4179H59.7109L59.771 10.4437L59.7968 10.5055L59.7899 15.7238L59.7642 15.8028L59.6852 15.8286H51.8955L51.8285 15.8509L51.8079 15.9145L51.8045 23.8158L51.8629 25.8409L51.9367 26.6156L52.0398 27.2322L52.239 27.9932L52.495 28.7215L52.8127 29.4291L53.182 30.0973L53.5754 30.6916L54.0082 31.2464L54.4909 31.7772L55.0096 32.2685L55.5679 32.7185L56.1571 33.1256L56.772 33.4863L57.4144 33.7989L58.0757 34.0634L58.7576 34.2781L59.4533 34.4396L60.161 34.5495L60.8721 34.6045H61.5883L62.2909 34.5513L62.9917 34.443L63.8299 34.2386L64.6578 33.9518L65.4514 33.5911L66.2261 33.1462L66.2724 33.0895L66.257 33.0157L65.8087 32.2169L65.4136 31.4096L65.0649 30.5748L64.7695 29.7349L64.5238 28.8692L64.3315 28L64.1906 27.1137L64.1047 26.2257L64.0704 25.2621L64.0996 24.3019L64.1923 23.3348L64.3469 22.3798L64.5651 21.4368L64.8416 20.511L65.1766 19.6058L65.5699 18.7263L66.0165 17.8761L66.5181 17.055L67.0712 16.2683L67.6775 15.5194L68.3285 14.8134L69.0259 14.1487L69.7576 13.5406L70.534 12.9773L71.2812 12.5049L72.0627 12.0738L72.8614 11.6959L73.6928 11.3626L74.5345 11.0844L75.4036 10.8508L76.2848 10.6704L77.19 10.5382L78.1519 10.4712L79.0983 10.4626L80.0465 10.5141L80.9775 10.6223L81.9084 10.7907L82.8188 11.0157L83.7189 11.3008L84.5932 11.6409L85.2751 11.9518L85.9364 12.2953L86.5788 12.6698L87.1989 13.0752L87.8035 13.5166L88.3841 13.9855L88.9389 14.4837L89.4679 15.0075L89.9712 15.5589L90.4453 16.1343L90.8902 16.7338L91.3058 17.3573L91.6854 17.9929L92.0324 18.649L92.3485 19.3241L92.6302 20.018L92.9462 20.949L93.2022 21.9057L93.3911 22.8711L93.5165 23.857L93.5766 24.8378L93.5732 25.8358L93.5045 26.8303L93.3705 27.8351L93.3293 27.909L93.2503 27.9382H69.9311L69.8727 27.9588L69.871 28.0207L70.0702 28.6012L70.3073 29.1629L70.589 29.7194L70.9033 30.2536L71.2571 30.7672L71.6419 31.255L72.0559 31.7154L72.5007 32.1465L72.9748 32.5519L73.4764 32.9246L74.0003 33.263L74.5465 33.5687L75.103 33.8333L75.6784 34.0617L76.2693 34.2524L76.8722 34.4035L77.4837 34.5032L78.2567 34.5753L80.2887 34.6354L87.1508 34.6389L95.387 34.6337L95.4557 34.6114L95.4781 34.5444V7.28488L95.4798 1.0583L95.5021 0.993032L95.5674 0.970703H100.755L100.825 0.99475L100.849 1.06518L100.848 40.0032L77.7053 39.9911L76.6094 39.852L75.5427 39.6424L74.5018 39.359L73.4918 39.0052L72.6038 38.6239L71.7381 38.1841L70.8964 37.6843L70.0771 37.1278L70.005 37.102L69.9345 37.1295L68.9658 37.7805L67.9644 38.349L66.92 38.8403L65.8533 39.2457L64.754 39.5669L63.6392 39.8022L62.5142 39.9482L61.3857 40.0066L60.1867 39.974L58.9912 39.84L57.8077 39.6098L56.6397 39.28L55.5078 38.8557L54.4016 38.337L53.3418 37.7307L52.3181 37.0316L51.6619 36.4922L51.0453 35.934L50.4647 35.3551L49.9253 34.7557L49.422 34.1339L48.9583 33.4949L48.5323 32.8336L48.1458 32.1517L47.5841 30.9647L47.129 29.7212L46.782 28.4209L46.5432 27.0622L46.4333 25.6623L46.3972 23.6337V15.9248L46.3749 15.8698L46.3182 15.8475H46.3165L45.6518 15.9076L45.0059 16.0072L44.3618 16.1532L43.7365 16.3405L43.1251 16.5706L42.5376 16.8403L41.9759 17.1478L41.4383 17.4913L40.9728 17.8331L40.5296 18.2041L40.1122 18.6026L39.7189 19.0252L39.353 19.4718L39.0147 19.9407L38.7038 20.432L38.4221 20.9438L38.1747 21.4694L37.9548 22.0122L37.7693 22.5739L37.6147 23.1493L37.4962 23.7265L37.4103 24.3173L37.3571 24.9202L37.3399 25.5335L37.3331 39.919L37.3107 39.9843L37.2489 40.0049H32.0564L31.9928 39.9843L31.9705 39.919L31.9688 24.7622L31.9894 24.0872L32.0529 23.4053L32.156 22.7182L32.3003 22.0242L32.4858 21.3252L32.7142 20.6209L32.9822 19.9098L33.2914 19.1935L33.896 18.01L34.5865 16.8987L35.3715 15.8475L36.2355 14.8787L37.175 13.9924L38.185 13.1954L39.2603 12.4912L40.3939 11.8848L41.0845 11.5756L41.7921 11.3025L42.517 11.0655L43.2573 10.8662L44.0011 10.7065L44.7586 10.5845L45.5281 10.5021L46.3079 10.4574L46.3732 10.4334L46.3955 10.3664L46.3972 0.970703ZM79.4419 15.8767L78.7428 15.8578L78.0505 15.8904L77.348 15.9763L76.6592 16.1137L75.979 16.3044L75.3177 16.5431L74.677 16.8283L74.0587 17.1615L73.4695 17.536L72.9095 17.9551L72.3805 18.412L71.8875 18.9101L71.4358 19.4409L71.0218 20.0077L70.6594 20.5917L70.3416 21.2084L70.0822 21.813L69.8658 22.4434L69.8727 22.4966L69.9174 22.5275H69.9277H87.7108L87.7846 22.5018V22.4227L87.4222 21.5141L86.9859 20.6587L86.4826 19.86L85.9141 19.1231L85.2837 18.4498L84.5966 17.8451L83.8529 17.3127L83.0576 16.8575L82.209 16.4796L81.3158 16.1876L80.3969 15.9866L79.4419 15.8767Z" fill="#1C1C1C"></path> <path d="M21.0587 40.0287L15.2633 40.0029L14.2155 39.9583L13.1798 39.8312L12.144 39.6216L11.1289 39.333L10.1189 38.9637L9.13979 38.5206L8.18133 37.9967L7.26237 37.4058L6.38292 36.7462L5.555 36.0248L4.77861 35.2467L4.06062 34.4136L3.40791 33.5359L2.82046 32.6135L2.31031 31.6636L1.87059 30.6777L1.42571 29.4014L1.09592 28.0874L0.89323 26.7768L0.8125 25.4388L0.833111 24.4167L0.927584 23.405L1.0942 22.3933L1.32952 21.3988L1.63698 20.4163L2.01144 19.4595L2.44944 18.5303L2.95101 17.6354L3.5144 16.7748L4.13792 15.952L4.81468 15.1739L5.54813 14.4405L6.32624 13.7637L7.15244 13.1385L8.01128 12.5768L8.91306 12.0735L10.1051 11.5273L11.3556 11.0807L12.6507 10.7458L13.963 10.5276L14.9713 10.4727L15.9693 10.4778L16.969 10.5482L17.9515 10.6788L18.9271 10.8729L19.8787 11.1271L20.8062 11.438L21.7063 11.8073L22.5892 12.2384L23.4377 12.7228L24.2502 13.2622L25.0249 13.853L25.7531 14.4886L26.4368 15.1722L27.0758 15.9005L27.6666 16.6735L28.1167 17.3451L28.5306 18.0459L28.8982 18.757L29.2314 19.4939L29.5234 20.2548L29.7759 21.0381L29.9855 21.8282L30.1521 22.6389L30.2466 23.3037L30.317 24.0955L30.3823 26.0606L30.4029 32.9897L30.3651 39.9205L30.3411 39.9858L30.2758 40.0081L21.0587 40.0287ZM24.7655 23.1594L24.714 22.943L24.4924 22.1975L24.2107 21.4812L23.8654 20.7804L23.4669 20.114L23.0083 19.4767L22.4999 18.8824L21.9451 18.331L21.349 17.8277L20.7152 17.3743L20.0453 16.9741L19.3428 16.6288L18.6145 16.3437L17.8707 16.1221L17.1081 15.9623L16.3472 15.8696L15.5725 15.8404L15.332 15.8455L14.7308 15.885L13.9012 16.0053L13.0939 16.1977L12.2986 16.4639L11.5342 16.7989L10.7922 17.2042L10.0914 17.6732L9.43523 18.1988L8.82717 18.7776L8.27236 19.4063L7.77424 20.0813L7.33623 20.7959L6.96349 21.5482L6.66634 22.3195L6.43789 23.1165L6.28673 23.9221L6.20943 24.7465L6.20428 25.4319L6.2541 26.1275L6.3812 26.9555L6.57358 27.7542L6.83467 28.5392L7.15931 29.2898L7.54922 30.0129L7.99753 30.6948L8.4991 31.3321L9.05219 31.923L9.73239 32.5259L10.4676 33.0618L11.2542 33.5256L12.0873 33.9121L12.9479 34.2161L13.8445 34.4377L14.7549 34.5734L15.6927 34.6215L24.9201 34.6369L24.9819 34.6111L25.0077 34.5476V26.5759L24.9441 24.5387L24.8703 23.7675L24.7655 23.1594Z" fill="#1C1C1C"></path> </svg> 