<?xml version="1.0" encoding="UTF-8"?> <svg xmlns="http://www.w3.org/2000/svg" width="80" height="80" viewBox="0 0 110 76" fill="none"> <path d="M2.4865 34.0307L2.3765 32.3318L2.35352 30.6148L2.41426 28.906L2.56038 27.1956L2.79023 25.518L3.10546 23.8536L3.50277 22.2187L3.97725 20.6412L4.52889 19.1097L5.14949 17.6455L5.85053 16.2224L6.61725 14.8731L7.4562 13.5846L8.35262 12.3764L9.32456 11.2274L10.3507 10.1637L11.3144 9.27734L12.3438 8.43034L13.4061 7.64408L14.5323 6.90213L15.7029 6.21272L16.9326 5.5709L18.1952 4.98654L19.5168 4.44978L20.8844 3.96554L22.3078 3.5322L23.7592 3.1563L25.2614 2.83129L26.7981 2.56209L28.3759 2.34706L29.9963 2.18619L31.648 2.0795L33.2964 2.0204L34.9792 1.99414L36.6719 2.00235L38.399 2.04503L41.9289 2.23051L45.6016 2.55388L49.3941 3.01349L53.3656 3.61427L57.5538 4.36278L62.0326 5.27051L64.799 5.89099L67.508 6.55906L70.1398 7.26654L72.7108 8.02161L75.1998 8.81773L77.6247 9.65652L79.9692 10.538L82.2496 11.4638L84.4529 12.4306L86.5905 13.4417L88.6428 14.4906L90.6277 15.5839L92.542 16.7214L94.3825 17.9016L96.1441 19.1196L97.8269 20.3769L99.0911 21.4029L100.308 22.4797L101.449 23.5844L102.519 24.7203L103.499 25.8644L104.394 27.0282L105.194 28.1903L105.903 29.3591L106.514 30.5262L107.028 31.69L107.443 32.8455L107.761 33.988L107.983 35.1338L108.108 36.2614L108.134 37.3941L108.062 38.5053L107.891 39.7266L107.64 40.956L107.318 42.1642L106.916 43.3772L106.44 44.5804L105.885 45.7836L105.261 46.9671L104.56 48.149L103.783 49.3193L102.933 50.4831L102.005 51.6404L101.005 52.7828L99.9383 53.9089L98.8071 55.0119L97.602 56.1052L96.3395 57.1721L95.0408 58.2013L93.688 59.2108L92.304 60.1842L90.8674 61.1395L89.3914 62.0637L87.8629 62.9698L86.2802 63.8545L84.6467 64.7179L82.9704 65.5551L81.2416 66.3725L79.4471 67.1752L77.5968 67.9598L75.6726 68.733L73.6828 69.4913L71.6043 70.2448L69.4469 70.9884L67.3734 71.6646L65.418 72.2605L63.5775 72.7726L61.8553 73.2043L59.8146 73.6475L57.7722 74.0185L55.7462 74.3123L53.7219 74.5356L51.7205 74.6817L49.7258 74.7539L47.7523 74.7522L45.7855 74.6751L43.8481 74.5241L41.9207 74.2976L40.0228 73.9972L38.1363 73.6213L36.2893 73.1748L34.4587 72.6528L32.6626 72.0602L30.8829 71.3905L29.0934 70.6322L27.3252 69.7901L25.5963 68.8774L23.8922 67.8843L22.7987 67.1933L21.7267 66.4694L20.6743 65.7143L19.6449 64.9297L18.6286 64.1073L17.6369 63.2538L16.6683 62.3739L15.7259 61.4662L14.8049 60.5256L13.9101 59.5605L13.0432 58.5706L12.2043 57.5562L11.3932 56.5172L10.6134 55.4568L9.86307 54.375L9.14396 53.272L8.45934 52.1558L7.80755 51.0215L7.18859 49.8692L6.60411 48.7005L6.05575 47.5236L5.54352 46.3335L5.06575 45.1287L4.62411 43.9107L4.22352 42.6911L3.8574 41.4616L3.53396 40.2371L3.24665 39.0027L2.99874 37.7617L2.78695 36.5142L2.61784 35.2749L2.4865 34.0307ZM7.30187 18.7864L6.65172 20.3687L6.09352 22.0086L5.6371 23.673L5.27426 25.3916L5.01158 27.1382L4.84575 28.929L4.78008 30.7297L4.81456 32.5649L4.94755 34.4164L5.18232 36.2943L5.51725 38.1705L5.94575 40.0303L6.47441 41.8966L7.09501 43.7334L7.80755 45.5505L8.60546 47.3266L9.67919 49.426L10.8547 51.4565L12.1402 53.4279L13.5243 55.3222L15.0052 57.1426L16.5764 58.8776L18.2362 60.524L19.9781 62.0768L21.7989 63.5361L23.6968 64.8952L25.6505 66.1427L27.6732 67.2852L29.7402 68.3111L31.868 69.2271L34.0302 70.0232L36.245 70.7044L38.184 71.1935L40.1558 71.5941L41.6793 71.8419L43.2046 72.0389L44.7478 72.1883L46.2911 72.2884L47.8607 72.3409L49.4286 72.3442L51.0146 72.2982L52.5972 72.2047L54.2029 72.0635L55.8037 71.8731L57.4225 71.6335L59.0364 71.3478L60.6732 71.0113L62.3035 70.6272L63.9502 70.1955L65.5887 69.7179L68.9955 68.6296L72.2314 67.4953L75.3344 66.3036L78.3274 65.0446L81.1973 63.7232L83.9735 62.3263L86.6496 60.8589L89.242 59.3093L90.4225 58.5542L91.5602 57.7877L92.6684 56.9981L93.7323 56.1987L94.7568 55.3846L95.732 54.5638L96.681 53.7185L97.5774 52.8682L98.4361 52.0015L99.2438 51.1332L100.024 50.2369L100.751 49.3407L101.434 48.4362L102.084 47.5071L102.685 46.5748L103.251 45.6195L103.806 44.5722L104.297 43.5052L104.727 42.4137L105.082 41.3254L105.359 40.2551L105.558 39.2095L105.678 38.1787L105.717 37.1872L105.689 36.3993L105.606 35.6196L105.468 34.8252L105.277 34.0389L105.034 33.2444L104.731 32.4319L104.381 31.6358L103.974 30.8249L103.512 30.014L102.994 29.1949L102.431 28.3922L101.816 27.5879L101.156 26.7951L100.449 26.0105L99.6937 25.2324L98.9023 24.4741L97.2868 23.0542L95.5728 21.6885L93.7471 20.3655L91.8213 19.0933L89.7772 17.8639L87.6364 16.6869L85.3773 15.5527L83.018 14.4677L80.905 13.5681L78.7411 12.7031L76.5477 11.884L74.3034 11.1026L72.0196 10.3607L69.685 9.65816L67.3225 8.99829L64.914 8.37781L62.4644 7.79673L59.9722 7.25669L57.4323 6.7544L54.8547 6.29315L52.241 5.87457L49.5911 5.49704L46.8937 5.15725L44.1634 4.86015L41.2525 4.60572L38.509 4.4465L35.8855 4.38248L33.3998 4.41038L31.029 4.53349L28.7552 4.75181L26.5978 5.06533L24.5341 5.47405L22.5771 5.97963L20.7137 6.58369L18.9635 7.28131L18.1262 7.66542L17.3069 8.07742L16.5189 8.51077L15.7489 8.97367L15.0117 9.45626L14.291 9.9684L13.6064 10.4986L12.9398 11.0567L12.3044 11.6345L11.6887 12.2435L11.032 12.9493L10.4016 13.6945L9.8056 14.4644L9.23755 15.272L8.70889 16.1009L8.2065 16.9676L7.74023 17.8573L7.30187 18.7864Z" fill="#1C1C1C"></path> <path d="M7.30109 18.7867L7.73945 17.8576L8.20571 16.968L8.7081 16.1013L9.23676 15.2723L9.80482 14.4647L10.4008 13.6949L11.0312 12.9496L11.688 12.2438L12.3036 11.6348L12.939 11.057L13.6056 10.4989L14.2902 9.96873L15.0109 9.45659L15.7481 8.974L16.5181 8.51111L17.3062 8.07776L18.1254 7.66575L18.9627 7.28165L20.7129 6.58402L22.5763 5.97996L24.5333 5.47439L26.5971 5.06566L28.7544 4.75214L31.0283 4.53383L33.399 4.41072L35.8847 4.38281L38.5083 4.44683L41.2517 4.60605L44.1626 4.86048L46.8929 5.15759L49.5903 5.49737L52.2402 5.87491L54.8539 6.29348L57.4315 6.75473L59.9714 7.25702L62.4636 7.79707L64.9132 8.37815L67.3217 8.99862L69.6842 9.65849L72.0188 10.361L74.3026 11.103L76.5469 11.8843L78.7403 12.7034L80.9042 13.5685L83.0172 14.468L85.3765 15.553L87.6356 16.6873L89.7765 17.8642L91.8205 19.0937L93.7463 20.3658L95.572 21.6888L97.286 23.0545L98.9015 24.4744L99.6929 25.2327L100.448 26.0108L101.156 26.7954L101.816 27.5883L102.43 28.3926L102.993 29.1953L103.512 30.0143L103.973 30.8252L104.38 31.6361L104.73 32.4322L105.034 33.2448L105.277 34.0392L105.467 34.8255L105.605 35.62L105.689 36.3997L105.717 37.1876L105.677 38.179L105.557 39.2099L105.359 40.2555L105.081 41.3257L104.727 42.414L104.296 43.5056L103.806 44.5725L103.251 45.6198L102.684 46.5751L102.083 47.5075L101.433 48.4365L100.75 49.341L100.023 50.2372L99.243 51.1335L98.4353 52.0018L97.5766 52.8685L96.6802 53.7188L95.7312 54.5641L94.756 55.3849L93.7315 56.199L92.6677 56.9984L91.5594 57.788L90.4217 58.5546L89.2412 59.3096L86.6488 60.8592L83.9727 62.3267L81.1965 63.7235L78.3266 65.0449L75.3336 66.3039L72.2306 67.4956L68.9947 68.6299L65.588 69.7182L63.9494 70.1959L62.3027 70.6276L60.6724 71.0117L59.0356 71.3482L57.4217 71.6338L55.8029 71.8734L54.2021 72.0638L52.5965 72.205L51.0138 72.2986L49.4278 72.3445L47.8599 72.3412L46.2903 72.2887L44.7471 72.1886L43.2038 72.0392L41.6786 71.8422L40.155 71.5944L38.1832 71.1939L36.2442 70.7047L34.0294 70.0235L31.8672 69.2274L29.7394 68.3114L27.6724 67.2855L25.6497 66.1431L23.696 64.8955L21.7981 63.5364L19.9774 62.0771L18.2354 60.5243L16.5756 58.8779L15.0044 57.1429L13.5235 55.3225L12.1394 53.4282L10.8539 51.4568L9.6784 49.4263L8.60467 47.3269L7.80676 45.5508L7.09422 43.7337L6.47363 41.8969L5.94497 40.0306L5.51646 38.1708L5.18154 36.2946L4.94676 34.4168L4.81377 32.5652L4.7793 30.73L4.84497 28.9293L5.01079 27.1385L5.27348 25.392L5.63631 23.6734L6.09273 22.0089L6.65094 20.3691L7.30109 18.7867ZM26.18 56.1777L26.9911 56.6997L27.8087 57.1429L28.6526 57.5188L29.4981 57.8192L30.3715 58.049L31.2433 58.2016L32.1266 58.2804L33 58.2821L33.8538 58.2098L34.6927 58.0703L35.5317 57.8569L36.3493 57.5746L37.1472 57.225L37.9188 56.8097L38.6609 56.3336L39.3702 55.7969L40.0384 55.2043L40.6688 54.5576L41.2566 53.8583L41.7984 53.1082L42.2844 52.3219L42.7211 51.4897L43.0987 50.6312L43.4221 49.7333L43.6454 48.9635L43.8326 48.1624L43.9803 47.3368L44.092 46.4898L44.1642 45.628L44.1971 44.7547L44.1905 43.8765L44.1445 42.9967L44.0608 42.1349L43.9377 41.283L43.7768 40.4607L43.5797 39.6547L43.3499 38.893L43.0823 38.156L42.7851 37.4633L42.4518 36.8018L42.1103 36.2175L41.7409 35.6676L41.3436 35.1505L40.9217 34.6679L40.4669 34.2132L39.9891 33.793L39.4884 33.4105L38.963 33.0642L38.3375 32.7129L37.6857 32.4092L37.0077 32.1548L36.3066 31.9513L35.5842 31.7986L34.8421 31.6968L34.082 31.6476L33.3038 31.6492L32.45 31.7018L31.6406 31.7937L30.8493 31.9299L30.1039 32.1039L29.3914 32.319L28.6936 32.58L28.032 32.8803L27.3851 33.23L26.9041 33.5304L26.8417 33.5468L26.8138 33.4893L26.7957 33.2727L26.799 32.8295L27.106 28.6076L27.899 17.2552L28.1502 12.9217L28.339 8.94938L28.3259 8.89193L28.2766 8.92311L23.8126 13.9985L22.7832 15.2526L21.9147 16.4952L21.5436 17.1075L21.2202 17.7L20.9378 18.2943L20.7096 18.8606L20.5224 19.5598L20.4223 20.3904L20.4009 21.3654L20.4535 22.718L20.4962 23.6684L21.4468 58.3083L21.473 58.3822L21.5502 58.3986L25.8894 57.9144L25.9715 57.875L26.006 57.7913L26.0799 56.2253L26.1078 56.1564L26.18 56.1777ZM56.3381 23.7669L56.3118 23.2302L56.233 22.6983L56.1017 22.1763L55.9211 21.6708L55.6912 21.1832L55.4138 20.7236L55.0936 20.2903L54.7324 19.8931L54.3351 19.5319L53.9017 19.2118L53.442 18.9344L52.9544 18.7046L52.4487 18.5241L51.9266 18.3927L51.3947 18.314L50.8578 18.2877L50.3209 18.314L49.789 18.3927L49.2669 18.5241L48.7612 18.7046L48.2736 18.9344L47.8139 19.2118L47.3805 19.5319L46.9832 19.8931L46.622 20.2903L46.3018 20.7236L46.0244 21.1832L45.7945 21.6708L45.6139 22.1763L45.4826 22.6983L45.4038 23.2302L45.3775 23.7669L45.4038 24.3037L45.4826 24.8355L45.6139 25.3575L45.7945 25.8631L46.0244 26.3506L46.3018 26.8102L46.622 27.2435L46.9832 27.6408L47.3805 28.0019L47.8139 28.322L48.2736 28.5994L48.7612 28.8292L49.2669 29.0098L49.789 29.1411L50.3209 29.2199L50.8578 29.2461L51.3947 29.2199L51.9266 29.1411L52.4487 29.0098L52.9544 28.8292L53.442 28.5994L53.9017 28.322L54.3351 28.0019L54.7324 27.6408L55.0936 27.2435L55.4138 26.8102L55.6912 26.3506L55.9211 25.8631L56.1017 25.3575L56.233 24.8355L56.3118 24.3037L56.3381 23.7669ZM84.0975 20.4774L84.0614 20.1163L83.9563 19.7699L83.7856 19.4499L83.5557 19.1708L83.2766 18.941L82.9565 18.7703L82.61 18.6652L82.2488 18.6291H62.2256L61.8644 18.6652L61.518 18.7703L61.1978 18.941L60.9187 19.1708L60.6888 19.4499L60.5181 19.7699L60.413 20.1163L60.3769 20.4774V56.4617L60.413 56.8228L60.5181 57.1692L60.6888 57.4892L60.9187 57.7683L61.1978 57.9981L61.518 58.1688L61.8644 58.2739L62.2256 58.31H82.2488L82.61 58.2739L82.9565 58.1688L83.2766 57.9981L83.5557 57.7683L83.7856 57.4892L83.9563 57.1692L84.0614 56.8228L84.0975 56.4617V20.4774ZM53.9821 58.3133L53.992 58.3116L54.0363 58.2607L54.9935 30.2688L54.9705 30.2228L54.9196 30.2162L46.9487 33.2874L46.929 33.3022L46.9142 33.3416L48.1078 58.2624L48.1291 58.3018L48.162 58.3133H53.9821Z" fill="white"></path> <path d="M26.0793 56.226L26.0055 57.7919L25.971 57.8756L25.8889 57.9151L21.5496 58.3993L21.4725 58.3829L21.4462 58.309L20.4956 23.6691L20.4529 22.7187L20.4004 21.3661L20.4217 20.3911L20.5219 19.5605L20.709 18.8612L20.9373 18.2949L21.2196 17.7007L21.5431 17.1081L21.9141 16.4959L22.7826 15.2533L23.812 13.9992L28.2761 8.92377L28.3253 8.89258L28.3384 8.95003L28.1496 12.9224L27.8984 17.2559L27.1055 28.6083L26.7984 32.8301L26.7952 33.2733L26.8132 33.49L26.8411 33.5474L26.9035 33.531L27.3846 33.2306L28.0314 32.881L28.6931 32.5806L29.3908 32.3196L30.1034 32.1046L30.8487 31.9306L31.6401 31.7944L32.4495 31.7024L33.3032 31.6499L34.0814 31.6483L34.8416 31.6975L35.5837 31.7993L36.3061 31.9519L37.0071 32.1555L37.6852 32.4099L38.337 32.7136L38.9625 33.0648L39.4879 33.4112L39.9886 33.7937L40.4664 34.2139L40.9211 34.6686L41.3431 35.1512L41.7404 35.6682L42.1098 36.2181L42.4513 36.8025L42.7846 37.464L43.0817 38.1567L43.3493 38.8937L43.5792 39.6553L43.7762 40.4613L43.9371 41.2837L44.0602 42.1356L44.144 42.9974L44.1899 43.8772L44.1965 44.7554L44.1637 45.6287L44.0914 46.4904L43.9798 47.3374L43.832 48.1631L43.6449 48.9641L43.4216 49.734L43.0982 50.6319L42.7205 51.4903L42.2838 52.3226L41.7979 53.1088L41.2561 53.859L40.6683 54.5582L40.0379 55.205L39.3696 55.7976L38.6604 56.3343L37.9183 56.8103L37.1467 57.2256L36.3487 57.5753L35.5311 57.8576L34.6922 58.071L33.8532 58.2105L32.9995 58.2827L32.1261 58.2811L31.2428 58.2023L30.371 58.0497L29.4976 57.8198L28.652 57.5195L27.8082 57.1436L26.9905 56.7004L26.1795 56.1784L26.1073 56.157L26.0793 56.226ZM38.4371 40.3891L38.1744 39.7194L37.8559 39.1005L37.475 38.5162L37.0465 37.9876L36.6787 37.6101L36.2847 37.2654L35.8529 36.9453L35.3998 36.6613L34.9187 36.4085L34.418 36.1935L33.9008 36.0146L33.3689 35.8718L32.814 35.7651L32.2508 35.6961L31.6779 35.6666L31.1016 35.6748L30.5237 35.7207L29.9458 35.8061L29.3695 35.9309L28.7998 36.0934L28.1973 36.3248L27.6801 36.6055L27.2598 36.9321L26.9183 37.3146L26.6753 37.7151L26.4964 38.1682L26.3814 38.6787L26.3273 39.2515L26.1516 44.3713L26.017 49.4927L25.9858 50.1361L25.9464 50.9946L25.9595 51.5987L26.0268 52.096L26.1532 52.4949L26.3683 52.8971L26.5965 53.2188L26.8559 53.5077L27.158 53.7769L27.4896 54.0133L27.8673 54.2299L28.2695 54.4122L28.7079 54.5681L29.1643 54.6896L29.6683 54.7831L30.1805 54.8389L30.7141 54.8619L31.2411 54.8471L31.7829 54.7979L32.3034 54.7109L32.7959 54.5927L33.254 54.4433L33.8384 54.2004L34.3885 53.923L34.922 53.6029L35.4211 53.2516L36.0286 52.7411L36.5802 52.183L37.0876 51.5609L37.539 50.8961L37.9446 50.1657L38.291 49.3991L38.5832 48.5833L38.8131 47.7396L38.9887 46.8433L39.0987 45.9323L39.1464 44.995L39.1299 44.0578L39.0479 43.1139L38.905 42.1848L38.7014 41.2738L38.4371 40.3891Z" fill="#1C1C1C"></path> <path d="M56.3375 23.7663L56.3113 24.3031L56.2325 24.8349L56.1011 25.3569L55.9205 25.8625L55.6907 26.35L55.4132 26.8096L55.0931 27.243L54.7319 27.6402L54.3346 28.0013L53.9011 28.3214L53.4414 28.5988L52.9538 28.8286L52.4481 29.0092L51.9261 29.1405L51.3941 29.2193L50.8572 29.2456L50.3204 29.2193L49.7884 29.1405L49.2664 29.0092L48.7607 28.8286L48.2731 28.5988L47.8134 28.3214L47.3799 28.0013L46.9826 27.6402L46.6214 27.243L46.3013 26.8096L46.0238 26.35L45.794 25.8625L45.6134 25.3569L45.482 24.8349L45.4032 24.3031L45.377 23.7663L45.4032 23.2296L45.482 22.6977L45.6134 22.1757L45.794 21.6702L46.0238 21.1827L46.3013 20.723L46.6214 20.2897L46.9826 19.8925L47.3799 19.5313L47.8134 19.2113L48.2731 18.9338L48.7607 18.704L49.2664 18.5235L49.7884 18.3922L50.3204 18.3134L50.8572 18.2871L51.3941 18.3134L51.9261 18.3922L52.4481 18.5235L52.9538 18.704L53.4414 18.9338L53.9011 19.2113L54.3346 19.5313L54.7319 19.8925L55.0931 20.2897L55.4132 20.723L55.6907 21.1827L55.9205 21.6702L56.1011 22.1757L56.2325 22.6977L56.3113 23.2296L56.3375 23.7663Z" fill="#1C1C1C"></path> <path d="M84.0975 56.4615L84.0614 56.8226L83.9564 57.169L83.7856 57.489L83.5558 57.7681L83.2767 57.9979L82.9565 58.1686L82.6101 58.2737L82.2489 58.3098H62.2256L61.8644 58.2737L61.518 58.1686L61.1978 57.9979L60.9187 57.7681L60.6889 57.489L60.5181 57.169L60.4131 56.8226L60.377 56.4615V20.4772L60.4131 20.1161L60.5181 19.7697L60.6889 19.4496L60.9187 19.1706L61.1978 18.9408L61.518 18.7701L61.8644 18.665L62.2256 18.6289H82.2489L82.6101 18.665L82.9565 18.7701L83.2767 18.9408L83.5558 19.1706L83.7856 19.4496L83.9564 19.7697L84.0614 20.1161L84.0975 20.4772V56.4615ZM70.7711 31.3486L70.8253 31.3437L70.8614 31.3831L70.8631 31.3995L70.8302 35.2077L70.845 40.4128L70.8581 43.5891L70.8565 44.986L70.8614 47.7617L70.9074 49.8086L70.9008 50.068L70.8631 50.2912L70.7941 50.4816L70.6956 50.6392L70.5134 50.8115L70.2819 50.9379L69.9896 51.0299L69.612 51.0939L69.1047 51.171L68.6335 51.2794L68.2181 51.4123L67.8537 51.5732L67.5319 51.7652L67.2725 51.9753L67.0607 52.2134L66.8932 52.4891L66.7619 52.8798L66.757 52.9586L66.775 53.0259L66.9326 53.3099L67.1428 53.5265L67.4071 53.6775L67.7256 53.7596L68.7714 53.8811L69.8599 53.9582L70.9928 53.9911L72.1683 53.9796L78.6484 53.8121L78.8865 53.7859L79.1328 53.7186L79.3741 53.6168L79.5941 53.4822L79.7599 53.3394L79.8896 53.1769L79.9684 53.0128L80.0013 52.8355L79.9881 52.6763L79.9307 52.5121L79.7025 52.2002L79.4349 51.9655L79.1426 51.7718L78.8159 51.6077L78.4416 51.4681L77.5944 51.2728L76.3926 51.1431L76.0856 51.1169L75.7458 51.043L75.5225 50.8969L75.4256 50.7541L75.3649 50.5801L75.3205 50.0647L75.3189 29.6497L75.3452 28.4301L75.378 27.0053L75.3632 25.9958L75.3337 25.6363L75.2746 25.3146L75.1859 25.0241L75.0644 24.7598L74.9068 24.5152L74.7131 24.2854L74.4668 24.0556L74.1762 23.8324L73.9332 23.6764L73.7132 23.573L73.4981 23.5139L73.2995 23.5041L73.0828 23.5467L72.8414 23.6567L72.234 24.1163L71.9828 24.3232L71.1684 24.9781L69.4987 26.329L68.2953 27.3566L67.2478 28.3218L66.3514 29.2344L65.9607 29.7006L65.6373 30.1865L65.3811 30.6921L65.189 31.2173L65.0643 31.7705L65.0068 32.345L65.0495 32.7685L65.1184 32.9524L65.217 33.1067L65.4337 33.2987L65.7407 33.435L66.1035 33.4973L66.5353 33.4957L67.0377 33.4218L67.5598 33.2807L68.0786 33.0788L68.4808 32.8555L70.7711 31.3486Z" fill="#1C1C1C"></path> <path d="M70.7702 31.3485L68.4799 32.8554L68.0776 33.0786L67.5588 33.2805L67.0368 33.4217L66.5344 33.4955L66.1026 33.4972L65.7397 33.4348L65.4327 33.2985L65.216 33.1065L65.1175 32.9522L65.0485 32.7684L65.0059 32.3449L65.0633 31.7703L65.1881 31.2172L65.3802 30.6919L65.6363 30.1863L65.9597 29.7005L66.3505 29.2343L67.2469 28.3216L68.2944 27.3564L69.4978 26.3289L71.1675 24.9779L71.9818 24.323L72.233 24.1162L72.8405 23.6566L73.0818 23.5466L73.2985 23.5039L73.4972 23.5138L73.7123 23.5728L73.9323 23.6763L74.1753 23.8322L74.4659 24.0554L74.7121 24.2852L74.9059 24.5151L75.0635 24.7596L75.185 25.0239L75.2736 25.3144L75.3327 25.6362L75.3623 25.9957L75.3771 27.0052L75.3442 28.43L75.3179 29.6496L75.3196 50.0645L75.3639 50.5799L75.4247 50.7539L75.5215 50.8967L75.7448 51.0428L76.0847 51.1167L76.3917 51.143L77.5935 51.2726L78.4406 51.468L78.815 51.6075L79.1417 51.7716L79.4339 51.9653L79.7015 52.2001L79.9297 52.5119L79.9872 52.6761L80.0003 52.8353L79.9675 53.0126L79.8887 53.1767L79.759 53.3392L79.5932 53.482L79.3732 53.6167L79.1318 53.7184L78.8856 53.7857L78.6475 53.812L72.1674 53.9794L70.9918 53.9909L69.859 53.9581L68.7705 53.8809L67.7247 53.7595L67.4062 53.6774L67.1418 53.5264L66.9317 53.3097L66.7741 53.0257L66.756 52.9584L66.7609 52.8796L66.8923 52.489L67.0597 52.2132L67.2715 51.9752L67.5309 51.7651L67.8527 51.573L68.2172 51.4122L68.6326 51.2792L69.1038 51.1709L69.6111 51.0937L69.9887 51.0297L70.2809 50.9378L70.5124 50.8114L70.6947 50.639L70.7932 50.4814L70.8621 50.291L70.8999 50.0678L70.9065 49.8084L70.8605 47.7615L70.8556 44.9858L70.8572 43.5889L70.8441 40.4127L70.8293 35.2076L70.8621 31.3994L70.8605 31.383L70.8244 31.3436L70.7702 31.3485Z" fill="white"></path> <path d="M53.982 58.3138H48.1618L48.1273 58.3007L48.1076 58.2629L46.9141 33.3422L46.9485 33.288L54.9194 30.2168L54.9638 30.2184L54.9933 30.2693L54.0362 58.2613L53.982 58.3138Z" fill="#1C1C1C"></path> <path d="M28.8007 36.0928L29.3704 35.9303L29.9467 35.8055L30.5246 35.7202L31.1025 35.6742L31.6788 35.666L32.2517 35.6956L32.8149 35.7645L33.3698 35.8712L33.9017 36.014L34.4189 36.1929L34.9197 36.408L35.4007 36.6607L35.8538 36.9447L36.2856 37.2648L36.6797 37.6095L37.0474 37.9871L37.4759 38.5156L37.8568 39.1L38.1753 39.7188L38.438 40.3885L38.7023 41.2733L38.9059 42.1843L39.0488 43.1134L39.1308 44.0572L39.1473 44.9945L39.0997 45.9318L38.9897 46.8428L38.814 47.739L38.5841 48.5827L38.2919 49.3985L37.9455 50.1651L37.54 50.8956L37.0885 51.5604L36.5811 52.1825L36.0295 52.7406L35.422 53.2511L34.9229 53.6023L34.3894 53.9224L33.8394 54.1998L33.2549 54.4428L32.7968 54.5921L32.3043 54.7103L31.7838 54.7973L31.242 54.8466L30.715 54.8613L30.1814 54.8384L29.6692 54.7826L29.1652 54.689L28.7088 54.5675L28.2704 54.4116L27.8682 54.2294L27.4906 54.0127L27.1589 53.7763L26.8568 53.5071L26.5974 53.2182L26.3692 52.8965L26.1541 52.4943L26.0277 52.0955L25.9604 51.5981L25.9473 50.9941L25.9867 50.1356L26.0179 49.4921L26.1525 44.3707L26.3282 39.251L26.3823 38.6781L26.4973 38.1676L26.6762 37.7146L26.9192 37.3141L27.2607 36.9316L27.681 36.6049L28.1982 36.3242L28.8007 36.0928Z" fill="white"></path> </svg> 