<?xml version="1.0" encoding="UTF-8"?> <svg xmlns="http://www.w3.org/2000/svg" width="210" height="67" viewBox="0 0 222 67" fill="none"> <rect width="222" height="67" fill="#EBEAF3"></rect> <path d="M38.9575 21.9886C38.3489 21.6222 37.6235 21.5894 36.9909 21.8945L47.5978 32.524L51.0659 29.0397L38.9575 21.9886ZM36.0163 22.8782C35.8825 23.1615 35.8105 23.4767 35.8105 23.8011V43.2448C35.8105 43.5706 35.883 43.8811 36.0182 44.1585L46.6209 33.5054L36.0163 22.8782ZM47.5992 34.4855L37.0094 45.1256C37.2904 45.2557 37.5894 45.3125 37.888 45.3125C38.2566 45.3125 38.6244 45.2244 38.9575 45.0241L51.0682 37.9624L47.5992 34.4855ZM55.6775 31.7252C55.6733 31.7225 55.6687 31.7197 55.6646 31.7174L52.3026 29.7595L48.5756 33.504L52.3049 37.2412C52.3049 37.2412 55.6733 35.2773 55.6775 35.275C56.3027 34.8952 56.676 34.2317 56.676 33.4999C56.676 32.7681 56.3027 32.1045 55.6775 31.7252Z" fill="#1C1C1C"></path> <path d="M75.42 40.7C74.3267 40.7 73.32 40.5267 72.4 40.18C71.4933 39.82 70.7 39.32 70.02 38.68C69.34 38.0267 68.8133 37.26 68.44 36.38C68.0667 35.5 67.88 34.54 67.88 33.5C67.88 32.46 68.0667 31.5 68.44 30.62C68.8133 29.74 69.34 28.98 70.02 28.34C70.7133 27.6867 71.52 27.1867 72.44 26.84C73.36 26.48 74.3667 26.3 75.46 26.3C76.6467 26.3 77.7133 26.4933 78.66 26.88C79.62 27.2667 80.4267 27.8333 81.08 28.58L79.44 30.18C78.8933 29.6333 78.3 29.2333 77.66 28.98C77.0333 28.7133 76.34 28.58 75.58 28.58C74.8467 28.58 74.1667 28.7 73.54 28.94C72.9133 29.18 72.3733 29.52 71.92 29.96C71.4667 30.4 71.1133 30.92 70.86 31.52C70.62 32.12 70.5 32.78 70.5 33.5C70.5 34.2067 70.62 34.86 70.86 35.46C71.1133 36.06 71.4667 36.5867 71.92 37.04C72.3733 37.48 72.9067 37.82 73.52 38.06C74.1333 38.3 74.8133 38.42 75.56 38.42C76.2533 38.42 76.92 38.3133 77.56 38.1C78.2133 37.8733 78.8333 37.5 79.42 36.98L80.9 38.92C80.1667 39.5067 79.3133 39.9533 78.34 40.26C77.38 40.5533 76.4067 40.7 75.42 40.7ZM78.44 38.58V33.34H80.9V38.92L78.44 38.58ZM88.8892 40.64C87.7959 40.64 86.8226 40.4067 85.9692 39.94C85.1159 39.46 84.4426 38.8067 83.9492 37.98C83.4559 37.1533 83.2092 36.2133 83.2092 35.16C83.2092 34.0933 83.4559 33.1533 83.9492 32.34C84.4426 31.5133 85.1159 30.8667 85.9692 30.4C86.8226 29.9333 87.7959 29.7 88.8892 29.7C89.9959 29.7 90.9759 29.9333 91.8292 30.4C92.6959 30.8667 93.3692 31.5067 93.8492 32.32C94.3426 33.1333 94.5892 34.08 94.5892 35.16C94.5892 36.2133 94.3426 37.1533 93.8492 37.98C93.3692 38.8067 92.6959 39.46 91.8292 39.94C90.9759 40.4067 89.9959 40.64 88.8892 40.64ZM88.8892 38.5C89.5026 38.5 90.0492 38.3667 90.5292 38.1C91.0092 37.8333 91.3826 37.4467 91.6492 36.94C91.9292 36.4333 92.0692 35.84 92.0692 35.16C92.0692 34.4667 91.9292 33.8733 91.6492 33.38C91.3826 32.8733 91.0092 32.4867 90.5292 32.22C90.0492 31.9533 89.5092 31.82 88.9092 31.82C88.2959 31.82 87.7492 31.9533 87.2692 32.22C86.8026 32.4867 86.4292 32.8733 86.1492 33.38C85.8692 33.8733 85.7292 34.4667 85.7292 35.16C85.7292 35.84 85.8692 36.4333 86.1492 36.94C86.4292 37.4467 86.8026 37.8333 87.2692 38.1C87.7492 38.3667 88.2892 38.5 88.8892 38.5ZM101.78 40.64C100.687 40.64 99.7132 40.4067 98.8598 39.94C98.0065 39.46 97.3332 38.8067 96.8398 37.98C96.3465 37.1533 96.0998 36.2133 96.0998 35.16C96.0998 34.0933 96.3465 33.1533 96.8398 32.34C97.3332 31.5133 98.0065 30.8667 98.8598 30.4C99.7132 29.9333 100.687 29.7 101.78 29.7C102.887 29.7 103.867 29.9333 104.72 30.4C105.587 30.8667 106.26 31.5067 106.74 32.32C107.233 33.1333 107.48 34.08 107.48 35.16C107.48 36.2133 107.233 37.1533 106.74 37.98C106.26 38.8067 105.587 39.46 104.72 39.94C103.867 40.4067 102.887 40.64 101.78 40.64ZM101.78 38.5C102.393 38.5 102.94 38.3667 103.42 38.1C103.9 37.8333 104.273 37.4467 104.54 36.94C104.82 36.4333 104.96 35.84 104.96 35.16C104.96 34.4667 104.82 33.8733 104.54 33.38C104.273 32.8733 103.9 32.4867 103.42 32.22C102.94 31.9533 102.4 31.82 101.8 31.82C101.187 31.82 100.64 31.9533 100.16 32.22C99.6932 32.4867 99.3198 32.8733 99.0398 33.38C98.7598 33.8733 98.6198 34.4667 98.6198 35.16C98.6198 35.84 98.7598 36.4333 99.0398 36.94C99.3198 37.4467 99.6932 37.8333 100.16 38.1C100.64 38.3667 101.18 38.5 101.78 38.5ZM114.71 44.52C113.724 44.52 112.757 44.3867 111.81 44.12C110.877 43.8667 110.11 43.4933 109.51 43L110.63 41.12C111.097 41.5067 111.684 41.8133 112.39 42.04C113.11 42.28 113.837 42.4 114.57 42.4C115.744 42.4 116.604 42.1267 117.15 41.58C117.697 41.0467 117.97 40.24 117.97 39.16V37.26L118.17 34.84L118.09 32.42V29.82H120.47V38.88C120.47 40.8133 119.977 42.2333 118.99 43.14C118.004 44.06 116.577 44.52 114.71 44.52ZM114.39 40.02C113.377 40.02 112.457 39.8067 111.63 39.38C110.817 38.94 110.17 38.3333 109.69 37.56C109.224 36.7867 108.99 35.88 108.99 34.84C108.99 33.8133 109.224 32.9133 109.69 32.14C110.17 31.3667 110.817 30.7667 111.63 30.34C112.457 29.9133 113.377 29.7 114.39 29.7C115.297 29.7 116.11 29.88 116.83 30.24C117.55 30.6 118.124 31.16 118.55 31.92C118.99 32.68 119.21 33.6533 119.21 34.84C119.21 36.0267 118.99 37.0067 118.55 37.78C118.124 38.54 117.55 39.1067 116.83 39.48C116.11 39.84 115.297 40.02 114.39 40.02ZM114.77 37.9C115.397 37.9 115.957 37.7733 116.45 37.52C116.944 37.2533 117.324 36.8933 117.59 36.44C117.87 35.9733 118.01 35.44 118.01 34.84C118.01 34.24 117.87 33.7133 117.59 33.26C117.324 32.7933 116.944 32.44 116.45 32.2C115.957 31.9467 115.397 31.82 114.77 31.82C114.144 31.82 113.577 31.9467 113.07 32.2C112.577 32.44 112.19 32.7933 111.91 33.26C111.644 33.7133 111.51 34.24 111.51 34.84C111.51 35.44 111.644 35.9733 111.91 36.44C112.19 36.8933 112.577 37.2533 113.07 37.52C113.577 37.7733 114.144 37.9 114.77 37.9ZM123.757 40.5V25.66H126.257V40.5H123.757ZM134.558 40.64C133.372 40.64 132.332 40.4067 131.438 39.94C130.558 39.46 129.872 38.8067 129.378 37.98C128.898 37.1533 128.658 36.2133 128.658 35.16C128.658 34.0933 128.892 33.1533 129.358 32.34C129.838 31.5133 130.492 30.8667 131.318 30.4C132.158 29.9333 133.112 29.7 134.178 29.7C135.218 29.7 136.145 29.9267 136.958 30.38C137.772 30.8333 138.412 31.4733 138.878 32.3C139.345 33.1267 139.578 34.1 139.578 35.22C139.578 35.3267 139.572 35.4467 139.558 35.58C139.558 35.7133 139.552 35.84 139.538 35.96H130.638V34.3H138.218L137.238 34.82C137.252 34.2067 137.125 33.6667 136.858 33.2C136.592 32.7333 136.225 32.3667 135.758 32.1C135.305 31.8333 134.778 31.7 134.178 31.7C133.565 31.7 133.025 31.8333 132.558 32.1C132.105 32.3667 131.745 32.74 131.478 33.22C131.225 33.6867 131.098 34.24 131.098 34.88V35.28C131.098 35.92 131.245 36.4867 131.538 36.98C131.832 37.4733 132.245 37.8533 132.778 38.12C133.312 38.3867 133.925 38.52 134.618 38.52C135.218 38.52 135.758 38.4267 136.238 38.24C136.718 38.0533 137.145 37.76 137.518 37.36L138.858 38.9C138.378 39.46 137.772 39.8933 137.038 40.2C136.318 40.4933 135.492 40.64 134.558 40.64ZM147.747 40.5V26.5H153.507C154.747 26.5 155.807 26.7 156.687 27.1C157.581 27.5 158.267 28.0733 158.747 28.82C159.227 29.5667 159.467 30.4533 159.467 31.48C159.467 32.5067 159.227 33.3933 158.747 34.14C158.267 34.8867 157.581 35.46 156.687 35.86C155.807 36.26 154.747 36.46 153.507 36.46H149.187L150.347 35.24V40.5H147.747ZM150.347 35.52L149.187 34.26H153.387C154.534 34.26 155.394 34.02 155.967 33.54C156.554 33.0467 156.847 32.36 156.847 31.48C156.847 30.5867 156.554 29.9 155.967 29.42C155.394 28.94 154.534 28.7 153.387 28.7H149.187L150.347 27.42V35.52ZM162.019 40.5V25.66H164.519V40.5H162.019ZM174.38 40.5V38.34L174.24 37.88V34.1C174.24 33.3667 174.02 32.8 173.58 32.4C173.14 31.9867 172.473 31.78 171.58 31.78C170.98 31.78 170.387 31.8733 169.8 32.06C169.227 32.2467 168.74 32.5067 168.34 32.84L167.36 31.02C167.933 30.58 168.613 30.2533 169.4 30.04C170.2 29.8133 171.027 29.7 171.88 29.7C173.427 29.7 174.62 30.0733 175.46 30.82C176.313 31.5533 176.74 32.6933 176.74 34.24V40.5H174.38ZM171.02 40.64C170.22 40.64 169.52 40.5067 168.92 40.24C168.32 39.96 167.853 39.58 167.52 39.1C167.2 38.6067 167.04 38.0533 167.04 37.44C167.04 36.84 167.18 36.3 167.46 35.82C167.753 35.34 168.227 34.96 168.88 34.68C169.533 34.4 170.4 34.26 171.48 34.26H174.58V35.92H171.66C170.807 35.92 170.233 36.06 169.94 36.34C169.647 36.6067 169.5 36.94 169.5 37.34C169.5 37.7933 169.68 38.1533 170.04 38.42C170.4 38.6867 170.9 38.82 171.54 38.82C172.153 38.82 172.7 38.68 173.18 38.4C173.673 38.12 174.027 37.7067 174.24 37.16L174.66 38.66C174.42 39.2867 173.987 39.7733 173.36 40.12C172.747 40.4667 171.967 40.64 171.02 40.64ZM180.633 44.52C180.113 44.52 179.593 44.4333 179.073 44.26C178.553 44.0867 178.12 43.8467 177.773 43.54L178.773 41.7C179.027 41.9267 179.313 42.1067 179.633 42.24C179.953 42.3733 180.28 42.44 180.613 42.44C181.067 42.44 181.433 42.3267 181.713 42.1C181.993 41.8733 182.253 41.4933 182.493 40.96L183.113 39.56L183.313 39.26L187.353 29.82H189.753L184.753 41.36C184.42 42.16 184.047 42.7933 183.633 43.26C183.233 43.7267 182.78 44.0533 182.273 44.24C181.78 44.4267 181.233 44.52 180.633 44.52ZM182.833 40.88L178.013 29.82H180.613L184.533 39.04L182.833 40.88Z" fill="#1C1C1C"></path> </svg> 