<?xml version="1.0" encoding="UTF-8"?> <svg xmlns="http://www.w3.org/2000/svg" width="80" height="80" viewBox="0 0 150 47" fill="none"> <path d="M81.5475 23.44L81.55 23.4525L81.5737 23.4726L81.6038 23.4626L90.1413 14.6817L90.5225 14.3107L90.94 13.9448L91.3838 13.5901L91.8275 13.2667L92.2513 12.991L92.6512 12.7654L93.0338 12.5836L93.375 12.4596L93.7113 12.3768L94.0413 12.333L94.365 12.3267L94.6825 12.3605L95.1675 12.4896L95.6375 12.714L96.0912 13.0323L96.5287 13.4459L96.8913 13.8858L97.1625 14.3383L97.3337 14.7795L97.4125 15.2369L97.4088 15.5891L97.3525 15.935L97.2438 16.2835L97.0788 16.6494L96.8637 17.0154L96.5925 17.3964L96.2588 17.7988L95.8613 18.2236L90.1813 24.0303L90.1575 24.083L90.1725 24.1394L97.4463 34.7012L97.7588 35.2088L98.0062 35.7277L98.1888 36.2566L98.3075 36.7955L98.3325 36.981L98.3538 37.3921L98.3237 37.7907L98.2012 38.3259L97.9812 38.8485L97.6725 39.336L97.2887 39.7709L96.8237 40.1607L96.3025 40.4803L95.74 40.7235L95.1475 40.8826L94.9212 40.9152L94.4463 40.9127L93.9613 40.8187L93.4637 40.627L92.9662 40.345L92.4587 39.964L91.9587 39.499L91.47 38.9538L90.9925 38.3271L84.9512 29.7493L84.915 29.723L84.8725 29.743L81.6125 32.949L81.5762 33.0004L81.5625 33.0656L81.5325 35.0847L81.475 37.0988L81.435 37.6027L81.355 38.084L81.2337 38.5389L81.0713 38.9663L80.8688 39.3624L80.6275 39.7246L80.355 40.0429L80.045 40.3249L79.6075 40.622L79.1125 40.8551L78.5775 41.0142L77.9912 41.1032L77.2738 41.1183L76.9337 41.0894L76.6137 41.0356L76.3087 40.9579L76.0238 40.8588L75.7475 40.731L75.4912 40.5831L75.245 40.4076L75.02 40.2109L74.805 39.9853L74.61 39.7409L74.4238 39.4626L74.2588 39.1681L73.975 38.5026L73.7525 37.7343L73.5963 36.877L73.5025 35.9282L73.4713 34.8679L73.4688 10.3088L73.4912 9.61699L73.56 8.97152L73.6725 8.38496L73.8312 7.84603L74.0362 7.36099L74.2875 6.92734L74.5812 6.55384L74.9212 6.23299L75.255 5.99736L75.625 5.80435L76.0212 5.65646L76.4525 5.54867L76.9212 5.4835L77.4275 5.46094L77.9587 5.48099L78.5262 5.54366L78.84 5.60382L79.13 5.6903L79.41 5.80686L79.6675 5.94723L79.8988 6.10766L80.11 6.28814L80.31 6.49619L80.4912 6.7243L80.6637 6.98499L80.8162 7.26198L81.0788 7.8924L81.2825 8.61934L81.425 9.43526L81.5125 10.3602L81.5462 11.4293L81.5687 17.4403L81.5475 23.44Z" fill="#1C1C1C"></path> <path d="M63.8581 39.2025L63.0806 39.6049L62.2844 39.9646L61.4831 40.2767L60.6681 40.5436L59.8544 40.7617L59.0344 40.9321L58.2206 41.0525L57.4056 41.1239L56.6094 41.1452L55.8156 41.1151L55.0419 41.0374L54.2756 40.9071L53.5406 40.7304L52.8156 40.5035L52.1194 40.229L51.4381 39.9044L50.9144 39.6124L50.4006 39.2853L49.9094 38.9331L49.4319 38.5483L49.0519 38.1999L48.6956 37.8239L48.3581 37.4153L48.0469 36.9829L47.7569 36.5179L47.4956 36.0341L47.2594 35.5228L47.0531 34.9964L46.8756 34.4512L46.7319 33.8972L46.6194 33.3357L46.5406 32.7717L46.4956 32.2052L46.4844 31.6412L46.5069 31.0809L46.5631 30.5282L46.6969 29.7837L46.8969 29.0656L47.1544 28.3976L47.4769 27.7571L47.8044 27.2382L48.1719 26.7544L48.5806 26.297L49.0444 25.8571L49.5506 25.4447L50.1094 25.0524L50.7081 24.6889L51.3581 24.3468L52.0419 24.0322L52.7731 23.7377L53.5669 23.4582L54.4169 23.195L55.3056 22.9506L56.2981 22.7074L58.8556 22.1647L60.5881 21.8038L61.1531 21.6634L61.6519 21.5067L62.0844 21.3325L62.4656 21.1332L62.7919 20.9127L63.0631 20.672L63.2906 20.3963L63.4594 20.1068L63.5919 19.7408L63.6556 19.3548L63.6469 18.9662L63.5531 18.6003L63.4006 18.3082L63.1756 18.035L62.8919 17.7969L62.5419 17.5863L62.1194 17.3983L61.6394 17.2429L61.1006 17.1176L60.4869 17.0185L60.0806 16.9784L59.6806 16.9647L59.2869 16.9772L58.9006 17.0173L58.5281 17.0837L58.1631 17.1777L57.8081 17.298L57.4631 17.4472L57.0719 17.6565L56.6944 17.9047L56.3444 18.1854L56.0119 18.5025L55.2569 19.4738L55.0131 19.7659L54.7431 20.0416L54.4506 20.2973L54.1381 20.5329L53.8081 20.7447L53.4631 20.9327L53.1069 21.0931L52.7394 21.2247L52.3781 21.3225L52.0119 21.3902L51.6569 21.424L51.3006 21.4278L50.9606 21.3989L50.6256 21.3375L50.3069 21.2473L49.9956 21.1232L49.8119 21.033L49.4469 20.8036L49.1281 20.5266L48.8556 20.2045L48.6294 19.8348L48.4494 19.4199L48.3156 18.9587L48.2056 18.3183L48.1719 17.6853L48.2144 17.0875L48.3331 16.4972L48.4794 16.0535L48.6669 15.6311L48.9019 15.2163L49.1769 14.824L49.5044 14.4342L49.8681 14.0695L50.2706 13.7223L50.7231 13.3839L51.2206 13.063L51.7631 12.7585L52.3331 12.4802L52.9394 12.222L53.5731 11.9902L54.2319 11.7834L54.9094 11.6054L55.5944 11.46L56.7231 11.2833L57.9281 11.1617L59.1531 11.1016L60.3806 11.1028L61.5619 11.1655L62.7081 11.2896L63.7944 11.4713L64.8231 11.7119L65.7581 12.0002L66.6281 12.3424L67.4194 12.7321L68.1369 13.1721L68.7819 13.6609L69.3444 14.1948L69.8381 14.7851L70.2456 15.4143L70.4356 15.7765L70.6031 16.1563L70.7431 16.5423L70.8619 16.9459L70.9444 17.3707L71.0069 17.9272L71.0481 18.6153L71.0694 19.435L71.2131 29.6797L71.3644 36.6056L71.3594 37.206L71.3069 37.765L71.2056 38.2951L71.0581 38.7814L70.8656 39.2239L70.6269 39.6187L70.3469 39.9658L70.0244 40.2629L69.6594 40.5098L69.2556 40.704L68.8131 40.8457L68.3331 40.9321L67.8231 40.9622L67.2794 40.9359L66.7156 40.8557L66.1219 40.7178L65.5694 40.5236L65.1144 40.2879L64.6856 39.9896L64.2844 39.6324L63.9094 39.2126L63.8869 39.1975L63.8581 39.2025ZM57.3169 28.4916L56.9144 28.6044L56.5344 28.7497L56.1669 28.9315L55.8256 29.1433L55.4981 29.3915L55.2031 29.6647L54.9344 29.968L54.7019 30.2901L54.5069 30.631L54.3531 30.9819L54.2431 31.3404L54.1781 31.7001L54.1594 32.0548L54.1881 32.402L54.2631 32.7291L54.3844 33.0437L54.5594 33.3495L54.7869 33.6352L55.0569 33.8859L55.3806 34.1115L55.7344 34.297L56.1381 34.4537L56.5731 34.574L57.0569 34.6617L57.9744 34.7457L58.8894 34.7407L59.7494 34.6467L60.1506 34.569L60.5444 34.4662L60.9006 34.3484L61.2431 34.208L61.5581 34.0488L61.8556 33.8671L62.1206 33.6741L62.3669 33.456L62.5856 33.2254L62.7819 32.9722L62.8956 32.7993L63.1244 32.3568L63.3181 31.8367L63.4744 31.2376L63.5894 30.5733L63.6669 29.8301L63.7006 29.0368L63.6931 28.1908L63.6444 27.3385L63.6231 27.2896L63.5719 27.2821L62.9931 27.3849L59.7094 27.9877L57.3169 28.4916Z" fill="#1C1C1C"></path> <path d="M126.408 40.7654L125.488 40.4621L124.593 40.0998L123.714 39.675L122.867 39.1937L122.045 38.6535L121.26 38.0619L120.514 37.4202L119.812 36.7346L119.153 36.004L118.542 35.2332L117.98 34.4248L117.47 33.58L117.022 32.7127L116.628 31.8153L116.298 30.9041L116.028 29.9692L115.839 29.1194L115.7 28.2709L115.61 27.4099L115.57 26.5526L115.584 25.5925L115.659 24.6412L115.795 23.6887L115.992 22.7512L116.248 21.8225L116.563 20.9138L116.933 20.029L117.358 19.1679L117.838 18.3345L118.368 17.5323L118.949 16.764L119.579 16.0321L120.252 15.344L120.969 14.6973L121.72 14.1032L122.512 13.553L123.34 13.0542L124.207 12.6055L125.095 12.2144L126.018 11.8773L126.798 11.6429L127.574 11.4537L128.358 11.307L129.135 11.2055L129.924 11.1479L130.704 11.1328L131.488 11.1641L132.259 11.2381L132.944 11.3409L133.619 11.4762L134.294 11.6492L134.957 11.8535L135.609 12.0916L136.248 12.3598L136.882 12.6644L137.499 12.999L138.108 13.3675L138.698 13.7648L139.269 14.1897L139.819 14.6409L140.352 15.1222L140.862 15.6285L141.348 16.1574L141.81 16.7089L142.247 17.2817L142.657 17.8732L143.039 18.4849L143.393 19.114L143.714 19.7532L144.007 20.4087L144.269 21.0768L144.499 21.7586L144.695 22.4416L144.858 23.1347L144.987 23.8253L145.083 24.5234L145.144 25.224L145.172 25.9322L145.165 26.6315L145.124 27.3347L144.978 28.5178L144.734 29.6796L144.392 30.8365L143.955 31.9645L143.445 33.0285L142.862 34.0463L142.199 35.0251L141.469 35.9476L140.67 36.8161L139.813 37.6208L138.9 38.3565L137.939 39.0207L136.939 39.6048L135.9 40.1099L134.837 40.5272L133.744 40.8606L132.649 41.1025L131.534 41.2542L130.412 41.3156L129.302 41.2843L128.574 41.2141L127.845 41.1038L127.127 40.9546L126.408 40.7654ZM126.713 32.9082L127.175 33.2805L127.655 33.5976L128.163 33.867L128.682 34.0788L129.219 34.2368L129.762 34.3358L130.308 34.3784L130.853 34.3633L131.37 34.2957L131.88 34.1753L132.38 34.0036L132.867 33.7805L133.332 33.5098L133.777 33.189L134.19 32.828L134.582 32.4194L135.07 31.7928L135.51 31.0821L135.887 30.3063L136.197 29.4841L136.44 28.6005L136.612 27.6881L136.707 26.7581L136.727 25.8219L136.669 24.9069L136.538 24.0071L136.33 23.1372L136.055 22.3238L135.712 21.5593L135.308 20.8662L134.837 20.2283L134.314 19.6705L133.954 19.3572L133.577 19.0802L133.172 18.8308L132.75 18.6202L132.08 18.3696L131.388 18.2066L130.67 18.1314L129.945 18.149L129.233 18.2568L128.53 18.4548L127.86 18.7368L127.218 19.1065L126.72 19.4675L126.388 19.7495L126.075 20.0503L125.777 20.3761L125.499 20.7196L125.243 21.0805L125.008 21.4553L124.789 21.8551L124.593 22.2687L124.418 22.6973L124.265 23.1385L124.134 23.5997L124.025 24.0685L123.882 25.0323L123.833 26.0124L123.882 27.0151L124.028 28.0077L124.268 28.9665L124.599 29.8902L124.797 30.3314L125.017 30.76L125.252 31.1623L125.508 31.5509L125.783 31.9219L126.079 32.2753L126.387 32.6012L126.713 32.9082Z" fill="#1C1C1C"></path> <path d="M108.219 13.6959L108.582 13.3513L108.974 13.0217L109.381 12.7183L109.809 12.4376L110.239 12.1919L110.681 11.9726L111.121 11.7896L111.569 11.638L111.995 11.5277L112.424 11.4487L112.839 11.4086L113.251 11.4023L113.64 11.4324L114.022 11.4989L114.387 11.6004L114.743 11.7382L115.261 12.0227L115.731 12.3837L116.103 12.7522L116.426 13.1545L116.691 13.5756L116.901 14.018L117.045 14.4605L117.129 14.9142L117.146 15.3579L117.097 15.804L117.03 16.0911L116.931 16.3756L116.807 16.6463L116.654 16.9133L116.372 17.2893L116.016 17.654L115.604 17.9861L115.13 18.2944L114.612 18.5639L114.052 18.7945L113.487 18.9687L112.934 19.0828L112.185 19.2457L111.826 19.3635L111.489 19.5026L111.166 19.6643L110.862 19.8461L110.58 20.0478L110.317 20.2684L109.94 20.6582L109.612 21.0906L109.33 21.5731L109.099 22.0945L108.92 22.6535L108.794 23.2451L108.717 23.8768L108.696 24.5335L108.761 35.1242L108.74 35.821L108.671 36.5191L108.559 37.1859L108.404 37.8188L108.211 38.4004L107.981 38.9268L107.711 39.4018L107.411 39.8104L107.166 40.0761L106.901 40.3142L106.618 40.5248L106.319 40.704L106.011 40.8507L105.692 40.9647L105.362 41.0462L105.025 41.0951L104.485 41.0988L103.938 41.0136L103.585 40.9121L103.259 40.783L102.949 40.6226L102.666 40.4371L102.412 40.2303L102.182 40.0022L101.967 39.7452L101.776 39.4682L101.596 39.1537L101.439 38.8215L101.301 38.4656L101.177 38.072L100.99 37.2373L100.864 36.2685L100.8 35.1793L100.784 33.748V33.5751L100.781 15.9494L100.815 15.3679L100.915 14.7976L101.077 14.2599L101.301 13.7498L101.576 13.2936L101.908 12.88L102.28 12.5278L102.704 12.2308L103.209 11.9826L103.745 11.8172L104.24 11.732L104.715 11.7044L105.182 11.7345L105.63 11.821L105.978 11.9313L106.312 12.0754L106.644 12.2584L106.961 12.4765L107.268 12.7284L107.559 13.0116L107.844 13.3337L108.114 13.6872L108.161 13.716L108.215 13.6997L108.219 13.6959Z" fill="#1C1C1C"></path> <path d="M35.5237 20.1859L35.195 19.8951L34.7862 19.6507L34.3025 19.4565L33.7537 19.3186L33.1387 19.2359L32.4887 19.2171L31.8175 19.2597L31.1775 19.3637L30.6387 19.5129L30.1787 19.7121L29.785 19.9653L29.4637 20.2711L29.3037 20.4829L29.1662 20.7135L29.0537 20.963L28.9625 21.2312L28.84 21.8453L28.7987 22.5685L28.7825 34.6719V36.9417L28.7625 37.3929L28.7037 37.8228L28.605 38.2427L28.47 38.6362L28.295 39.0147L28.085 39.3631L27.835 39.6915L27.5537 39.9873L27.105 40.3483L26.6037 40.6353L26.06 40.8446L25.48 40.9724L24.89 41.0163L24.2787 40.9762L23.6737 40.8534L23.0612 40.6466L22.5725 40.4122L22.14 40.1314L21.7525 39.7993L21.4237 39.4258L21.245 39.1664L21.09 38.8919L20.9575 38.6024L20.85 38.3003L20.7637 37.9782L20.7025 37.6423L20.6662 37.2951L20.6537 36.9367L20.655 23.8306L20.6425 22.9821L20.6062 22.289L20.545 21.7526L20.4612 21.3715L20.2637 20.8915L19.9875 20.4591L19.6612 20.1082L19.2637 19.8049L18.8175 19.563L18.3075 19.3775L17.7462 19.2509L17.1375 19.187L16.5112 19.1882L15.865 19.2522L15.2375 19.3875L14.6887 19.5943L14.4437 19.7247L14.2175 19.8738L14.0112 20.0393L13.825 20.2247L13.6412 20.4491L13.4812 20.6973L13.345 20.9655L13.2337 21.2575L13.1462 21.6297L13.0837 22.1423L13.0462 22.7928L13.0337 23.5824L13.0312 37.8993L13.0112 38.1299L12.95 38.3993L12.8575 38.6613L12.7425 38.8906L12.3925 39.4108L12.005 39.8632L11.5775 40.2505L11.11 40.5726L10.7287 40.7719L10.325 40.9336L9.89875 41.0564L9.44875 41.1416L9.02 41.183H8.6L8.1925 41.1441L7.7975 41.0652L7.41375 40.9474L7.0475 40.7907L6.7025 40.5977L6.38 40.3671L5.96 39.9748L5.6 39.511L5.31375 38.9934L5.09625 38.4144L5.0275 38.1148L4.97875 37.7488L4.93875 36.8151L4.9375 16.7981L4.95 16.1151L4.9875 15.5448L5.04875 15.0886L5.13375 14.7439L5.3325 14.2839L5.60875 13.8666L5.85875 13.5909L6.14125 13.3527L6.4625 13.1434L6.81125 12.973L7.2 12.8326L7.61 12.7323L8.05 12.6684L8.5025 12.6446L9.06875 12.6684L9.60375 12.7524L10.0987 12.8978L10.5637 13.1071L10.8862 13.3026L11.1925 13.5357L11.4825 13.8077L11.7575 14.1173L11.7987 14.1436L11.845 14.1223L12.4125 13.6234L13.0062 13.1785L13.625 12.7862L14.2687 12.4478L15.1012 12.1019L15.9737 11.8374L16.885 11.6557L17.835 11.5554L18.9812 11.5229L20.0825 11.5692L21.1212 11.6933L22.1112 11.8951L23.05 12.1771L23.9312 12.5368L24.7537 12.973L25.515 13.4843L26.0812 13.9455L26.6187 14.4644L26.6737 14.4933L26.7287 14.4669L27.23 14.0132L27.7487 13.5971L28.2862 13.2174L28.8387 12.8752L29.4137 12.5681L30.0012 12.2987L30.6025 12.0681L31.2162 11.8775L31.9075 11.7121L32.61 11.5943L33.3212 11.5266L34.04 11.5078L34.7587 11.5379L35.4812 11.6181L36.2062 11.7459L36.9312 11.9252L37.7212 12.1821L38.47 12.4942L39.1912 12.8689L39.8687 13.2951L40.295 13.6071L40.7 13.9393L41.095 14.3015L41.47 14.6825L41.825 15.0873L42.1587 15.5097L42.47 15.9509L42.7587 16.4083L43.03 16.8896L43.2775 17.3872L43.5012 17.8986L43.7025 18.4237L43.88 18.9677L44.0337 19.5229L44.1612 20.0881L44.265 20.6647L44.325 21.1522L44.3687 21.7313L44.4037 23.1638L44.4075 31.6614L44.4062 35.9102L44.38 37.052L44.3012 37.7764L44.1987 38.1988L44.0662 38.6011L43.9025 38.9821L43.7075 39.3406L43.485 39.669L43.2325 39.971L42.9612 40.2355L42.6625 40.4698L42.3025 40.6917L41.91 40.8747L41.4975 41.01L41.055 41.104L40.485 41.1579L39.9275 41.1341L39.4112 41.0376L38.9125 40.8621L38.6375 40.7255L38.3787 40.5663L38.125 40.3771L37.8887 40.1678L37.6675 39.9347L37.4637 39.684L37.0987 39.1112L36.805 38.467L36.5862 37.7526L36.4525 37.0031L36.4087 36.2398L36.4037 23.6113L36.3875 22.5961L36.325 21.9117L36.1925 21.3289L36.0975 21.0682L35.9787 20.8163L35.7787 20.4967L35.5237 20.1859Z" fill="#1C1C1C"></path> </svg> 