<?xml version="1.0" encoding="UTF-8"?> <svg xmlns="http://www.w3.org/2000/svg" width="80" height="80" viewBox="0 0 84 107" fill="none"> <g clip-path="url(#clip0_1069_3260)"> <path d="M3.23438 16.4746H79.9417V103.121H3.23438V16.4746Z" fill="#F6F6F6"></path> <path d="M37.2066 69.4863H36.9369C33.5667 69.6247 32.7578 73.3619 32.7578 78.76C32.7578 82.774 33.7015 87.0648 37.0718 87.2032C40.442 87.2032 41.2509 82.774 41.3857 78.76C41.5205 73.5003 40.7116 69.7632 37.2066 69.4863Z" fill="#1C1C1C"></path> <path d="M59.1819 12.8763V4.98678L54.3287 0.00390625H29.928L24.94 4.98678V12.8763H0V106.997H83.9871V12.8763H59.1819ZM68.349 34.192H73.7415V56.8917H68.349V34.192ZM73.7415 66.4422V70.1794H62.2825V66.4422H73.7415ZM29.928 4.98678H54.3287V12.8763H29.928V4.98678ZM43.2742 34.0535V56.8917H38.1514V34.0535H43.2742ZM9.97599 34.3304H13.8855L22.2438 50.6631L30.602 34.3304H34.2419V56.7533H29.3887V44.2961L22.6482 56.8917H19.8172L13.6159 44.1577V56.7533H9.97599V34.3304ZM23.1874 88.7267C19.6824 91.3566 13.4811 90.8029 9.97599 89.4188L10.65 85.8201C12.4026 86.6505 15.2336 87.0658 17.6602 86.9274C20.626 86.6505 21.8393 84.2975 20.4912 82.6366C19.1431 80.6988 14.1551 80.1451 11.4589 77.2384C9.16713 74.747 9.84118 70.3178 12.133 68.38C15.3684 65.6117 21.8393 66.4422 24.6704 67.2727L23.9963 70.5946C22.783 69.9025 15.0988 68.6568 14.5596 72.1171C14.1551 74.4702 17.6602 75.5775 19.4127 76.408C21.7045 77.3769 23.8615 78.761 24.94 80.4219C26.0185 82.0829 26.4229 86.3737 23.1874 88.7267ZM37.2078 90.5261C30.602 90.5261 28.3102 85.4048 28.0406 78.761C27.9058 74.1934 28.9843 70.733 31.2761 68.5184C32.759 66.9959 34.6464 66.3038 37.2078 66.3038C39.7692 66.3038 41.6565 66.8575 43.1394 68.5184C45.4312 70.733 46.5097 74.1934 46.3749 78.761C46.1053 85.2664 43.6787 90.5261 37.2078 90.5261ZM47.1837 34.192H50.0148L60.9344 47.7564V34.192H64.5743V56.8917H62.4174L50.8236 43.0504V56.8917H47.1837V34.192ZM55.4072 68.7952C55.4072 70.4562 54.1939 71.7019 52.5762 71.7019C51.0933 71.7019 49.7452 70.4562 49.7452 68.7952C49.7452 67.1343 50.9584 65.8886 52.5762 65.8886C54.0591 65.8886 55.4072 67.1343 55.4072 68.7952ZM61.6085 90.5261C54.7331 90.5261 49.0711 84.7128 49.0711 77.3769V76.8232H52.4414V77.3769C52.4414 82.6366 56.4857 86.9274 61.6085 86.9274C66.7313 86.9274 70.7756 82.6366 70.7756 77.3769V76.8232H74.1459V77.3769C74.1459 84.5743 68.4838 90.5261 61.6085 90.5261Z" fill="#1C1C1C"></path> </g> <defs> <clipPath id="clip0_1069_3260"> <rect width="84" height="107" fill="white"></rect> </clipPath> </defs> </svg> 