<?xml version="1.0" encoding="UTF-8"?> <svg xmlns="http://www.w3.org/2000/svg" width="80" height="80" viewBox="0 0 125 33" fill="none"> <path d="M3.67525 14.9444L2.63048 13.9613L1.7295 12.849L0.995815 11.6458L0.455818 10.3721L0.132995 9.09838L0.0332145 7.87166L0.153538 6.66253L0.493971 5.54732L0.934185 4.69038L1.53581 3.87745L2.26657 3.1555L3.15873 2.49812L4.08025 1.95811L4.97828 1.52964L5.89099 1.19214L6.79196 0.960296L7.61663 0.825299L8.4413 0.763672L9.29238 0.769538L10.2139 0.842907L12.2359 1.19214L15.0386 1.90823L15.112 1.92583L15.5141 1.96399L16.0247 1.91409L16.6645 1.86127L16.8817 1.94638L16.9873 2.15181L17.6242 7.24361L17.5977 7.37861L17.4686 7.43144L16.4884 7.50774L16.3065 7.46959L16.1949 7.32285L15.6637 6.21058L15.0328 5.24798L14.3049 4.43505L13.4744 3.7718L12.5265 3.24941L11.4729 2.87963L10.3166 2.66833L9.05759 2.60963L8.00108 2.73583L7.49924 2.88843L7.03848 3.09387L6.62175 3.34919L6.2549 3.65147L5.93795 3.99777L5.67675 4.37929L5.47426 4.79016L5.33045 5.23037L5.24828 5.697L5.23067 6.18417L5.27469 6.68307L5.38621 7.19373L5.78828 8.18861L6.16099 8.81077L6.64816 9.46229L7.21457 10.0933L7.88956 10.7448L9.55357 12.0948L12.0334 13.8292L14.7892 15.7838L16.1128 16.9606L17.225 18.2372L18.1348 19.6195L18.5016 20.3326L18.8039 21.0546L19.0446 21.7765L19.2236 22.5044L19.3351 23.2292L19.385 23.9541L19.3645 24.6555L19.2823 25.3452L19.1297 26.0261L18.9125 26.6864L18.5398 27.4905L18.0585 28.2565L17.4833 28.9608L16.8024 29.6182L16.0423 30.2052L15.1795 30.7393L14.2404 31.2059L13.1985 31.6168L11.9337 31.9836L10.9241 32.1715L9.90868 32.2742L8.8639 32.2947L7.82206 32.2302L6.7362 32.0805L5.65621 31.8486L4.54981 31.5287L3.45514 31.1325L2.8271 30.9623L2.18733 30.9477L1.33918 31.0885L1.08386 31.1384L0.828534 31.0856L0.6906 30.8655L0.687664 30.8537L0.0273438 25.0459L0.0831049 24.6614L0.300276 24.4002L0.672992 24.2095L0.784512 24.1977L0.893099 24.2417L1.46244 24.723L1.79113 25.2014L2.51602 26.6981L3.21449 27.8075L3.98046 28.6908L4.85209 29.3717L5.86164 29.8706L7.00033 30.1787L7.98934 30.3226L8.92553 30.3842L9.81183 30.3636L10.6101 30.2639L11.3144 30.0848L11.9659 29.8178L12.5177 29.4773L13.0048 29.043L13.404 28.5206L13.7209 27.8984L13.9352 27.2029L14.0614 26.4017L14.0819 25.6534L14.0085 24.9402L13.8178 24.1596L13.4979 23.3701L13.0723 22.6276L12.5235 21.8851L11.8486 21.1514L11.0532 20.4236L10.0994 19.6723L8.96662 18.877L6.6599 17.257L3.67525 14.9444Z" fill="#1C1C1C"></path> <path d="M23.7617 17.1153L23.8204 15.1783L24.1022 13.3001L24.5893 11.5304L25.2966 9.83705L25.7632 8.96542L26.2827 8.13783L26.8726 7.32783L27.5094 6.56185L28.1991 5.83697L28.9357 5.15904L29.734 4.50752L30.5762 3.9059L31.4743 3.34242L32.4075 2.83178L33.3731 2.37396L34.3679 1.96896L35.401 1.61679L36.4545 1.32038L37.5257 1.08267L38.6087 0.903641L39.6975 0.783315L40.7921 0.71875H41.8868L42.9785 0.777449L44.0468 0.891909L45.1033 1.06799L46.1481 1.3057L47.1752 1.60212L48.1554 1.95135L49.1092 2.35635L50.0131 2.80831L50.8877 3.31601L51.7241 3.87655L52.5253 4.49285L53.2678 5.14731L53.9692 5.85458L54.8261 6.85827L55.6068 7.9588L56.2876 9.12097L56.8834 10.3712L57.4645 12L57.8401 13.6552L58.0133 15.2282L58.0103 16.8012L57.8343 18.3919L57.488 19.9561L56.9773 21.4704L56.3053 22.9319L55.4776 24.3348L54.4974 25.6613L53.5789 26.7031L52.6016 27.6598L51.5715 28.5285L50.4944 29.3121L49.3557 30.0135L48.1789 30.621L46.961 31.1375L45.7108 31.5543L44.6073 31.8389L43.4833 32.0502L42.3417 32.1852L41.1883 32.2439L40.0379 32.2293L38.8757 32.1383L37.7106 31.971L36.5397 31.7274L34.7788 31.2285L33.1119 30.6005L31.574 29.8638L30.1478 29.004L28.8682 28.0502L27.709 26.979L26.7023 25.8168L25.8278 24.549L25.367 23.7243L24.962 22.8644L24.6216 21.9899L24.334 21.0772L24.1022 20.1292L23.929 19.1402L23.8175 18.1453L23.7617 17.1153ZM45.7607 29.1888L46.0277 29.045L46.7409 28.6019L47.4041 28.1L48.038 27.5219L48.6221 26.8909L49.1621 26.2013L49.6492 25.4646L50.1012 24.6576L50.4944 23.8124L50.8437 22.9055L51.1342 21.9693L51.3749 20.9745L51.5539 19.9561L51.6771 18.9113L51.7417 17.8519L51.7446 16.7866L51.6889 15.7212L51.4042 13.6141L51.1782 12.581L50.8936 11.5686L50.5561 10.5942L50.1628 9.64923L49.7285 8.77173L49.2442 7.92945L48.7218 7.15468L48.1525 6.42686L47.5567 5.77534L46.914 5.17372L46.239 4.63959L45.523 4.16416L44.7893 3.76797L44.0174 3.4334L42.7819 3.06069L41.2118 2.80831L39.6652 2.78482L38.9168 2.86113L38.189 2.99319L36.8155 3.41873L35.7209 3.94698L34.7113 4.61612L33.7692 5.43491L32.924 6.3799L32.1698 7.45109L31.5242 8.63087L30.993 9.90749L30.5792 11.2663L30.2241 12.9714L30.0333 14.6589L30.0069 16.3199L30.1419 17.9634L30.4442 19.5893L30.9079 21.1975L31.5388 22.7823L32.3342 24.3436L32.8037 25.1037L33.329 25.8256L33.9042 26.5035L34.5235 27.1345L35.1897 27.7156L35.8911 28.2468L36.6277 28.7193L37.3937 29.1302L38.1773 29.4765L38.9784 29.7553L39.7708 29.9607L40.5749 30.0986L41.382 30.1661L42.192 30.1632L42.9756 30.0869L43.7562 29.9372L44.7687 29.6291L45.7607 29.1888Z" fill="#1C1C1C"></path> <path d="M106.572 32.2117L105.383 32.0943L104.209 31.9094L103.056 31.6629L101.926 31.3488L100.837 30.9761L99.7805 30.5447L98.7592 30.0517L97.776 29.497L96.8575 28.8983L95.9858 28.2409L95.1847 27.5483L94.4363 26.8058L93.7496 26.0134L93.1186 25.1741L92.5639 24.3113L92.0738 23.3986L91.5485 22.1865L91.1318 20.9011L90.8383 19.5834L90.6651 18.1982L90.6094 16.1527L90.7796 14.204L90.9469 13.2649L91.1728 12.3492L91.4546 11.46L91.7921 10.5942L92.2411 9.6375L92.7664 8.71598L93.3592 7.82382L94.0284 6.961L95.214 5.68732L96.5699 4.51928L98.0607 3.49211L99.6543 2.62049L101.371 1.89267L103.158 1.33506L105.025 0.947684L106.918 0.736381L108.799 0.707031L110.668 0.859635L112.479 1.1854L114.243 1.69018L115.886 2.35343L117.448 3.18397L118.898 4.17885L120.192 5.29993L121.075 6.21851L121.859 7.15762L122.566 8.14371L123.176 9.14739L123.708 10.2039L124.139 11.2722L124.485 12.3756L124.732 13.4879L124.917 15.0639L124.923 16.634L124.746 18.2305L124.397 19.7947L123.869 21.3589L123.176 22.8674L122.314 24.3348L121.301 25.717L120.157 26.9995L118.886 28.1705L117.521 29.2065L116.054 30.1104L114.536 30.8529L112.94 31.4516L111.317 31.883L109.635 32.153L108.121 32.2527L106.572 32.2117ZM99.2464 24.3641L99.9713 25.494L100.805 26.53L101.735 27.4603L102.756 28.2732L103.819 28.9335L104.946 29.4589L106.102 29.8316L107.311 30.0575L108.118 30.1221L108.946 30.1162L110.043 30.0047L111.07 29.7875L112.06 29.4559L112.978 29.0245L113.682 28.599L114.34 28.1089L114.971 27.5454L115.549 26.9262L116.083 26.2453L116.564 25.5145L117.01 24.7134L117.398 23.8681L117.741 22.9672L118.026 22.028L118.261 21.0332L118.434 20.0119L118.548 18.9642L118.607 17.9047L118.601 16.8335L118.539 15.7623L118.243 13.6493L118.008 12.6104L117.715 11.595L117.371 10.6177L116.969 9.66978L116.529 8.78642L116.039 7.94415L115.511 7.16643L114.936 6.43568L114.334 5.78122L113.688 5.1796L113.007 4.64254L112.285 4.1671L111.546 3.76798L110.768 3.43342L110.011 3.18103L108.429 2.84646L106.894 2.75256L106.137 2.79658L105.398 2.8993L104.676 3.06364L103.974 3.28668L102.677 3.88537L101.471 4.6983L100.37 5.72253L99.3872 6.94926L98.812 7.85317L98.316 8.78935L97.8846 9.78424L97.5354 10.8055L97.2507 11.8855L97.0482 12.9831L96.922 14.1247L96.8721 15.2722L96.9044 16.4491L97.013 17.62L97.2038 18.8086L97.4679 19.9796L97.8083 21.13L98.2221 22.2482L98.7005 23.3281L99.2464 24.3641Z" fill="#1C1C1C"></path> <path d="M61.7273 3.02792L61.6246 2.99269L61.5864 2.88118V1.71314L61.6246 1.60456L61.7332 1.56641H78.1678L78.2794 1.60456L78.3146 1.71314V2.88705L78.2735 3.01031L78.1502 3.05139L76.947 3.07488L75.8024 3.16292L74.7136 3.32139L73.6835 3.54737L73.2257 3.72638L72.9087 3.98172L72.718 4.27812L72.5889 4.68606L72.5243 5.89811V6.03605L72.5184 27.6858L72.5977 28.2522L72.8354 28.6748L73.0555 28.8567L73.3313 28.9859L73.6659 29.0651L74.0592 29.0886L78.5846 29.0827H80.093L80.9676 29.0563L81.6925 28.9682L82.3205 28.8186L82.9016 28.5838L83.6294 28.123L84.3308 27.4627L85.088 26.5119L86.033 25.3145L86.7403 24.5221L87.2949 24.0379L87.7234 23.8412H87.8144L87.9406 23.897L88.0315 24.0026L88.0638 24.1376L88.0315 24.2726L84.369 31.4921L84.2134 31.6594L83.9963 31.721H61.5131L61.3487 31.6653L61.293 31.5009V30.4151L61.3311 30.2977L61.4544 30.2537L62.9188 30.1715L64.0781 29.9426L64.5476 29.7724L64.9732 29.5552L65.3341 29.2999L65.6481 28.9917L65.9827 28.5075L66.2292 27.9176L66.376 27.2485L66.4259 26.4649L66.4288 15.8499L66.4259 5.23485L66.4053 5.02942L66.2556 4.64204L65.9768 4.3016L65.566 3.99345L65.0084 3.70878L64.2982 3.45345L63.4852 3.24803L62.5608 3.09541L61.7273 3.02792Z" fill="#1C1C1C"></path> </svg> 